HIERARCHY
ROOT Hips
{
	OFFSET 0.000000 88.474243 0.000000
	CHANNELS 6 Xposition Yposition Zposition Zrotation Yrotation Xrotation 
	JOINT Hips_Spine
	{
		OFFSET 0.000000 0.000000 0.000000
		CHANNELS 3 Zrotation Yrotation Xrotation
		JOINT Spine
		{
			OFFSET 0.005100 8.711998 -0.691000
			CHANNELS 3 Zrotation Yrotation Xrotation
			JOINT Spine1
			{
				OFFSET -0.009200 8.660301 -1.275000
				CHANNELS 3 Zrotation Yrotation Xrotation
				JOINT Spine2
				{
					OFFSET 0.006300 9.852501 -1.857000
					CHANNELS 3 Zrotation Yrotation Xrotation
					JOINT Spine2_Neck
					{
						OFFSET 0.000000 0.000000 0.000000
						CHANNELS 3 Zrotation Yrotation Xrotation
						JOINT Neck
						{
							OFFSET 0.016300 11.420799 -0.263300
							CHANNELS 3 Zrotation Yrotation Xrotation
							End Site #name: Head
							{
								OFFSET -0.019200 9.262405 2.362500
							}
						}
					}
					JOINT Spine2_LeftShoulder
					{
						OFFSET 0.000000 0.000000 0.000000
						CHANNELS 3 Zrotation Yrotation Xrotation
						JOINT LeftShoulder
						{
							OFFSET 5.616900 6.732201 -0.345700
							CHANNELS 3 Zrotation Yrotation Xrotation
							JOINT LeftArm
							{
								OFFSET 10.664888 -0.183372 -2.440700
								CHANNELS 3 Zrotation Yrotation Xrotation
								JOINT LeftForeArm
								{
									OFFSET 27.459126 0.000000 0.000000
									CHANNELS 3 Zrotation Yrotation Xrotation
									End Site #name: LeftHand
									{
										OFFSET 21.306858 0.000000 0.000000
									}
								}
							}
						}
					}
					JOINT Spine2_RightShoulder
					{
						OFFSET 0.000000 0.000000 0.000000
						CHANNELS 3 Zrotation Yrotation Xrotation
						JOINT RightShoulder
						{
							OFFSET -5.580300 6.737503 -0.344400
							CHANNELS 3 Zrotation Yrotation Xrotation
							JOINT RightArm
							{
								OFFSET -10.679335 -0.188484 -2.383900
								CHANNELS 3 Zrotation Yrotation Xrotation
								JOINT RightForeArm
								{
									OFFSET -27.503529 0.000000 0.000000
									CHANNELS 3 Zrotation Yrotation Xrotation
									End Site #name: RightHand
									{
										OFFSET -21.306808 0.000000 0.000000
									}
								}
							}
						}
					}
				}
			}
		}
	}
	JOINT Hips_LeftUpLeg
	{
		OFFSET 0.000000 0.000000 0.000000
		CHANNELS 3 Zrotation Yrotation Xrotation
		JOINT LeftUpLeg
		{
			OFFSET 6.857700 -6.739601 0.312100
			CHANNELS 3 Zrotation Yrotation Xrotation
			JOINT LeftLeg
			{
				OFFSET -0.367590 -34.731552 -4.572400
				CHANNELS 3 Zrotation Yrotation Xrotation
				End Site #name: LeftFoot
				{
					OFFSET 0.367590 -34.656704 -6.067400
				}
			}
		}
	}
	JOINT Hips_RightUpLeg
	{
		OFFSET 0.000000 0.000000 0.000000
		CHANNELS 3 Zrotation Yrotation Xrotation
		JOINT RightUpLeg
		{
			OFFSET -6.876100 -6.733299 0.301000
			CHANNELS 3 Zrotation Yrotation Xrotation
			JOINT RightLeg
			{
				OFFSET 0.347353 -34.795158 -4.515900
				CHANNELS 3 Zrotation Yrotation Xrotation
				End Site #name: RightFoot
				{
					OFFSET -0.347353 -34.589367 -6.070300
				}
			}
		}
	}
}
MOTION
Frames: 12
Frame Time: 0.041667
-1.554181 5.576294 40.063002 0.859918 -8.498593 2.656229 0.000000 0.000000 0.000000 -0.076771 2.051031 0.918437 -0.497093 4.304674 1.812392 0.000000 0.000000 0.000000 -0.496097 4.304716 1.812593 1.987365 -0.983535 -0.732920 -0.496097 4.304716 1.812593 -0.137034 2.266964 0.195171 -69.844881 25.389433 -18.126810 -0.000027 -1.308484 0.000013 -0.496097 4.304716 1.812593 6.742966 -8.680069 -1.139426 20.940252 32.843663 -28.054545 -0.000018 58.232431 -0.000013 0.000000 0.000000 0.000000 -8.840912 0.732143 -29.281828 2.554866 8.203908 18.518942 0.000000 0.000000 0.000000 1.547088 -9.626353 -0.325129 -3.853814 -9.798459 10.654741 
-1.010407 5.706138 42.223940 -0.018114 -8.196144 3.103965 0.000000 0.000000 0.000000 -0.215339 2.203066 0.633753 -0.352563 4.587664 1.227779 0.000000 0.000000 0.000000 -0.350083 4.587161 1.230446 2.656136 -1.260700 -1.010238 -0.350083 4.587161 1.230446 -1.366994 3.238687 0.018739 -68.760184 20.510874 -16.699108 -0.000024 -2.829776 0.000004 -0.350083 4.587161 1.230446 7.069486 -8.582952 -1.183979 28.122866 29.483967 -21.431013 0.000023 54.191728 0.000014 0.000000 0.000000 0.000000 -8.084371 1.161531 -29.012854 2.668371 7.896940 21.247094 0.000000 0.000000 0.000000 0.632460 -10.091659 -1.728641 -4.424923 -7.069896 15.182343 
-0.472181 6.032997 43.855952 0.385304 -8.328964 2.331668 0.000000 0.000000 0.000000 -1.213946 2.692851 0.453623 -0.416359 5.266007 0.812696 0.000000 0.000000 0.000000 -0.407841 5.265092 0.823289 3.316089 -1.606524 -0.341352 -0.407841 5.265092 0.823289 -2.934495 3.600929 -0.035508 -67.215281 13.923212 -15.163104 0.000000 -4.415003 -0.000001 -0.407841 5.265092 0.823289 7.916175 -8.617089 -1.433287 38.099613 22.918175 -14.920957 -0.000010 51.268595 -0.000021 0.000000 0.000000 0.000000 -9.437763 1.791868 -26.812112 2.905052 8.317466 20.651967 0.000000 0.000000 0.000000 -2.012319 -8.339904 -9.566194 -2.706387 3.060639 29.276294 
-0.602109 6.370964 46.028040 0.528431 -7.130562 1.375290 0.000000 0.000000 0.000000 -2.207534 3.171853 0.277888 -1.089981 6.044504 0.480117 0.000000 0.000000 0.000000 -1.083412 6.043405 0.490020 4.517874 -2.066984 0.651495 -1.083412 6.043405 0.490020 -3.722280 3.085576 0.076932 -65.386688 7.266965 -13.752599 -0.000044 -8.045882 0.000007 -1.083412 6.043405 0.490020 9.360431 -8.961199 -1.972425 47.871283 16.025097 -10.445097 0.000013 48.950958 -0.000010 0.000000 0.000000 0.000000 -9.386712 0.846234 -26.266052 5.490807 5.378529 23.782774 0.000000 0.000000 0.000000 -3.716183 -3.736301 -18.672333 0.698260 8.697626 46.861790 
-0.890703 6.409546 48.582711 -0.538682 -5.074606 0.993171 0.000000 0.000000 0.000000 -2.622728 3.404824 0.013545 -1.774000 6.555257 0.013437 0.000000 0.000000 0.000000 -1.778284 6.552651 0.010583 5.673898 -2.445511 1.620836 -1.778284 6.552651 0.010583 -3.347563 2.094489 0.276944 -63.096035 2.468838 -12.555400 -0.000015 -17.017157 0.000007 -1.778284 6.552651 0.010583 10.779982 -9.384953 -2.525590 55.566682 9.899454 -8.462137 0.000005 45.562813 0.000008 0.000000 0.000000 0.000000 -8.366253 -0.605312 -26.476487 7.423915 -2.702097 27.212305 0.000000 0.000000 0.000000 -5.605845 2.731029 -28.370526 3.325665 10.268788 66.146627 
-0.776534 5.845611 50.481158 -1.827328 -2.985794 -0.349177 0.000000 0.000000 0.000000 -2.409722 3.091198 -0.057116 -1.722492 6.005366 -0.048163 0.000000 0.000000 0.000000 -1.736855 6.001352 -0.067324 5.766596 -2.323502 2.865302 -1.736855 6.001352 -0.067324 -2.246586 1.278327 0.431769 -59.987573 -0.318962 -11.766216 -0.000017 -32.294534 0.000001 -1.736855 6.001352 -0.067324 11.279742 -9.458635 -2.666056 59.749263 3.609024 -9.007186 -0.000002 39.498318 -0.000011 0.000000 0.000000 0.000000 -8.223618 -1.540627 -24.626451 7.287802 -12.738188 29.427984 0.000000 0.000000 0.000000 -9.196660 10.847893 -36.656719 3.904311 10.260103 84.045325 
0.080716 4.740547 51.116742 -2.722500 -0.686897 -1.944415 0.000000 0.000000 0.000000 -2.013337 2.147503 0.062174 -0.932046 4.174017 0.218515 0.000000 0.000000 0.000000 -0.942224 4.172883 0.198471 4.698136 -1.714570 3.817388 -0.942224 4.172883 0.198471 -1.094715 0.978506 0.467815 -56.006407 -3.274611 -11.647423 0.000000 -50.044253 0.000006 -0.942224 4.172883 0.198471 10.788824 -9.127957 -2.368139 60.039358 -3.666237 -11.226571 0.000001 31.605545 -0.000002 0.000000 0.000000 0.000000 -7.742191 -1.188670 -23.463948 5.801669 -14.832697 32.765735 0.000000 0.000000 0.000000 -16.309912 20.472043 -43.480538 2.451105 10.158691 95.913462 
1.062193 4.215759 51.367430 -3.653373 2.341264 -1.645673 0.000000 0.000000 0.000000 -1.774188 1.075920 0.061315 -0.561424 2.294986 0.173818 0.000000 0.000000 0.000000 -0.564504 2.295041 0.162843 4.157745 -1.356221 3.904378 -0.564504 2.295041 0.162843 -0.298468 1.103196 0.411466 -51.639602 -8.779860 -12.153393 0.000001 -63.980848 -0.000016 -0.564504 2.295041 0.162843 10.070744 -8.769996 -2.014870 57.262987 -11.983103 -13.579636 -0.000002 24.546716 -0.000003 0.000000 0.000000 0.000000 -7.615862 -1.035936 -25.426357 4.840000 -14.672915 35.728409 0.000000 0.000000 0.000000 -27.536796 28.247315 -51.837694 0.181226 10.791233 100.207761 
1.940036 4.645187 51.281540 -4.993854 5.602904 -0.756180 0.000000 0.000000 0.000000 -1.249773 0.040010 0.039002 -0.182501 0.353324 0.063482 0.000000 0.000000 0.000000 -0.182477 0.353647 0.061909 3.833927 -1.084321 3.904633 -0.182477 0.353647 0.061909 0.093554 1.396881 0.335058 -47.619626 -16.948421 -13.002551 0.000040 -70.621328 -0.000065 -0.182477 0.353647 0.061909 9.622550 -8.618560 -1.836177 52.773274 -21.285966 -15.134203 -0.000009 20.255128 -0.000003 0.000000 0.000000 0.000000 -7.012881 -0.393613 -26.006959 4.568246 -14.385666 34.023451 0.000000 0.000000 0.000000 -37.705387 29.768899 -58.603132 -3.251055 11.129890 96.239959 
2.425316 5.906730 50.844977 -6.979410 8.635821 -1.361501 0.000000 0.000000 0.000000 -0.104556 -0.872088 0.129162 0.607837 -1.645408 0.191931 0.000000 0.000000 0.000000 0.605680 -1.644895 0.202005 3.336020 -0.708172 4.615865 0.605680 -1.644895 0.202005 0.268715 1.653656 0.287514 -44.353788 -25.616255 -14.057784 0.000057 -71.840626 -0.000056 0.605680 -1.644895 0.202005 9.264845 -8.474387 -1.700397 48.210106 -31.398772 -16.410063 0.000007 19.043734 0.000002 0.000000 0.000000 0.000000 -6.169381 1.121833 -23.445447 5.259724 -13.372223 28.572207 0.000000 0.000000 0.000000 -39.066897 25.336905 -59.701382 -7.053922 10.083256 86.497627 
2.099597 7.395454 50.086808 -8.784097 11.025620 -3.367257 0.000000 0.000000 0.000000 0.976704 -1.657282 0.379159 1.221073 -3.533240 0.623027 0.000000 0.000000 0.000000 1.211304 -3.531525 0.649774 2.872699 -0.248360 5.910540 1.211304 -3.531525 0.649774 0.533223 1.710540 0.275788 -41.417443 -32.478761 -15.501791 -0.000055 -72.265184 0.000061 1.211304 -3.531525 0.649774 8.703370 -8.000865 -1.418237 45.193701 -41.238130 -18.734075 -0.000016 19.840102 -0.000012 0.000000 0.000000 0.000000 -5.101207 2.381539 -21.750282 5.127649 -11.779683 24.878375 0.000000 0.000000 0.000000 -32.555647 17.868381 -57.091850 -10.746693 7.508396 73.982836 
1.116707 8.297050 49.186129 -9.711484 12.102874 -4.916486 0.000000 0.000000 0.000000 1.546461 -2.238780 0.692361 1.101126 -5.016344 1.169921 0.000000 0.000000 0.000000 1.080398 -5.012158 1.206202 2.833394 0.204635 7.108215 1.080398 -5.012158 1.206202 1.170185 1.457889 0.283142 -37.816613 -36.873389 -17.746663 -0.000025 -74.836149 0.000036 1.080398 -5.012158 1.206202 7.926852 -7.062669 -0.988430 44.120384 -49.141039 -22.694705 0.000000 20.935108 0.000004 0.000000 0.000000 0.000000 -4.111817 2.230857 -21.582362 7.509036 -4.438330 22.456230 0.000000 0.000000 0.000000 -22.883038 9.982297 -55.007574 -12.682703 4.164646 60.115200 
